# xmcd
#
# Track frame offsets: 
#        150
#        12281
#        24518
#        40391
#        53073
#        66374
#        76546
#        87097
#        105397
#        122778
#        131923
#        145085
#        153154
#        163302
#        175014
#        188210
#        204497
#        213540
#        225396
#
# Disc length: 3156 seconds
#
# Revision: 1
# Processed by: cddbd v1.5.2PL0 Copyright (c) Steve Scherf et al.
# Submitted via: ExactAudioCopy v1.3
#
DISCID=f80c5213
DTITLE=Various Artist - Country Classics
DYEAR=2012
DGENRE=Country
TTITLE0=Johnny Cash - I Walk The Line
TTITLE1=The Bellamy Brothers - If I Said You Had A Beautiful Body Woul
TTITLE1=d You Hold It Against Me
TTITLE2=Willie Nelson - Always On My Mind
TTITLE3=Lynn Anderson - Rose Garden
TTITLE4=Charlie Rich - The Most Beautiful Girl
TTITLE5=Patsy Cline - Walking' After Midnight
TTITLE6=Jerry Lee Lewis - Jambalaya (On The Bayou)
TTITLE7=Merle Travis - Sixteen Tons
TTITLE8=Ernest Tubb - Walking The Floor Over You
TTITLE9=Hoyt Axton - Lonesome Road
TTITLE10=Hank Williams - I'm So Lonesome I Colud Cry
TTITLE11=Anne Murray - Both Sides Now
TTITLE12=Woody Guthrie - Gambling Man
TTITLE13=The Judds - Love Can Build A Bridge
TTITLE14=The Carter Family - Foggy Mountain Top
TTITLE15=Waylon Jennings - Don't Think Twice, It's Alright
TTITLE16=Ray Stevens - Misty
TTITLE17=Kenny Rogers - Reuben James
TTITLE18=The Everly Brothers - Bye, Bye, Love
EXTD=
EXTT0=
EXTT1=
EXTT2=
EXTT3=
EXTT4=
EXTT5=
EXTT6=
EXTT7=
EXTT8=
EXTT9=
EXTT10=
EXTT11=
EXTT12=
EXTT13=
EXTT14=
EXTT15=
EXTT16=
EXTT17=
EXTT18=
PLAYORDER=
